/* XPM */
static char *_9dfb86feb064ecaa4d31c115a5e04d5xkcxKcwxSAzcZh7I[] = {
/* columns rows colors chars-per-pixel */
"48 48 6 1 ",
"  c #13A837",
". c #00B3D7",
"X c #00B8D4",
"o c #3DD9EB",
"O c #7DEBF5",
"+ c #C2FFFF",
/* pixels */
"                                                ",
"                                                ",
"                                                ",
"                                                ",
"                    .........                   ",
"                    .........                   ",
"                    .........                   ",
"                 ...+++++++++...                ",
"                 ...+++++++++...                ",
"                 ...+++++++++...                ",
"              ...+++oooooooooOOO...             ",
"              ...+++oooooooooOOO...             ",
"              ...+++oooooooooOOO...             ",
"           ...+++OOOoooooo+++oooooo...          ",
"           ...+++OOOoooooo+++oooooo...          ",
"           ...+++OOOoooooo+++oooooo...          ",
"           ...+++ooo+++OOOOOOoooooo...          ",
"           ...+++ooo+++OOOOOOoooooo...          ",
"           ...+++ooo+++OOOOOOoooooo...          ",
"        ...+++ooo+++ooooooooo+++oooooo...       ",
"        ...+++ooo+++ooooooooo+++oooooo...       ",
"        ...+++ooo+++ooooooooo+++oooooo...       ",
"        ...+++oooOOOooooooooo+++oooooo...       ",
"        ...+++oooOOOooooooooo+++oooooo...       ",
"        ...+++oooOOOooooooooo+++oooooo...       ",
"        ...+++OOO+++ooooooooo+++++++++...       ",
"        ...+++OOO+++ooooooooo+++++++++...       ",
"        ...+++OOO+++ooooooooo+++++++++...       ",
"        ...+++oooooo+++++++++XXXXXX+++...       ",
"        ...+++oooooo+++++++++XXXXXX+++...       ",
"        ...+++oooooo+++++++++XXXXXX+++...       ",
"           ...ooo+++XXXXXXXXX+++XXX...          ",
"           ...ooo+++XXXXXXXXX+++XXX...          ",
"           ...ooo+++XXXXXXXXX+++XXX...          ",
"           ...ooo+++XXXXXXXXX++++++...          ",
"           ...ooo+++XXXXXXXXX++++++...          ",
"           ...ooo+++XXXXXXXXX++++++...          ",
"              ...+++XXXXXXXXX+++...             ",
"              ...+++XXXXXXXXX+++...             ",
"              ...+++XXXXXXXXX+++...             ",
"                 ...............                ",
"                 ...............                ",
"                 ...............                ",
"                                                ",
"                                                ",
"                                                ",
"                                                ",
"                                                "
};
