/* XPM */
static char *b6deb739c1304835f2a3926047e3c617EgveFhaP14gFfSaG[] = {
/* columns rows colors chars-per-pixel */
"48 48 20 1 ",
"  c #13A837",
". c #A06A49",
"X c #A06A4A",
"o c #A16A4A",
"O c #A16A4B",
"+ c #A36D4C",
"@ c #AB7454",
"# c #AD7554",
"$ c #AE7655",
"% c #B07856",
"& c #B37B5A",
"* c #C68E6B",
"= c #CB926F",
"- c #D9A07C",
"; c #E6AC86",
": c #E9AE89",
"> c #ECB28C",
", c #EFB48E",
"< c #F7BC95",
"1 c #FFC49C",
/* pixels */
"                                                ",
"                                                ",
"                                                ",
"       ..................................       ",
"      ..&&&&&&&&&&&&&&&&&&&&&&&&&&&&&&&&.O      ",
"      OO11111111111111111111111111111111OO      ",
"      O.1:****************************:1.O      ",
"      OO1-O.O.O..O.O.O.OO.O.O.O.O.O.O.-1OO      ",
"      OO1-.>111111111111111111111111>.-1.O      ",
"      OO1-.>111111111111111111111111>O-1OO      ",
"      OO1-.>111111111111111111111111>O-1OO      ",
"      OO1-.>111111111111111111111111>.-1OO      ",
"      OO1-O>111111111111111111111111>.-1OO      ",
"      O.1-.>111111111111111111111111>.-1OO      ",
"      OO1-.>111111111111111111111111>.-1OO      ",
"      O.1-O>111111111111111111111111>.-1OO      ",
"      O.1-O>111111111111111111111111>.-1.O      ",
"      OO1-.>111111111111111111111111>O-1OO      ",
"      O.1-.>111111111111111111111111>O-1.O      ",
"      OO1-O>111111111111111111111111>.-1OO      ",
"      O.1-O>111111111111111111111111>O-1.O      ",
"      OO1-.>111111111111111111111111>.-1OO      ",
"      O.1-O>111111111111111111111111>.-1.O      ",
"      OO1-.>111111111111111111111111>O-1OO      ",
"      OO1-O>111111111111111111,##,11>O-1.O      ",
"      O.1-.>111111111111111111=..=11>O-1OO      ",
"      OO1-O>111111111111111111;++;11>O-1.O      ",
"      OO1-.>1111111111111111111<<111>.-1OO      ",
"      OO1-O>111111111111111111111111>O-1.O      ",
"      OO1-.>111111111111111111111111>.-1OO      ",
"      OO1-O>111111111111111111111111>.-1.O      ",
"      OO1-.>111111111111111111111111>O-1OO      ",
"      OO1-.>111111111111111111111111>.-1OO      ",
"      OO1-.>111111111111111111111111>O-1.O      ",
"      Oo1-.>111111111111111111111111>.-1OO      ",
"      OO1-.>111111111111111111111111>O-1.O      ",
"      OO1-.>111111111111111111111111>O-1OO      ",
"      OO1-O>111111111111111111111111>.-1.O      ",
"      OO1-O>111111111111111111111111>.-1OO      ",
"      OO1-.>111111111111111111111111>O-1.O      ",
"      O.1-O>111111111111111111111111>O-1OO      ",
"      OO1-.>111111111111111111111111>.-1.O      ",
"      O.1-.>111111111111111111111111>.-1OO      ",
"      OO&@O%&&&&&&&&&&&&&&&&&&&&&&&&%O#&OO      ",
"       ...O..OXX.OX.O.O.O.OXO.O..OXX..O..       ",
"                                                ",
"                                                ",
"                                                "
};
