/* XPM */
static char *c48186f0970b4c3495745780047ad773kpNIyNGlHeS5zMVt[] = {
/* columns rows colors chars-per-pixel */
"48 48 75 1 ",
"  c #13A837",
". c #4D3E40",
"X c #4F4144",
"o c #514143",
"O c #57474A",
"+ c #5A4849",
"@ c #5C4B4E",
"# c #644A44",
"$ c #735F63",
"% c #845C46",
"& c #8E6148",
"* c #9A684C",
"= c #9A6C54",
"- c #966E5A",
"; c #A06A49",
": c #A06A4A",
"> c #A16A4A",
", c #A16B4A",
"< c #A16A4B",
"1 c #A16B4B",
"2 c #A26B4A",
"3 c #A26A4B",
"4 c #A26B4B",
"5 c #A36B4B",
"6 c #A26C4A",
"7 c #A46B4C",
"8 c #A46C4C",
"9 c #A46D4C",
"0 c #A56C4D",
"q c #A46D4D",
"w c #A56D4D",
"e c #A56E4D",
"r c #A56E4E",
"t c #A77050",
"y c #A87252",
"u c #AA7352",
"i c #AD7554",
"p c #AC7556",
"a c #AD7757",
"s c #AF7756",
"d c #B17958",
"f c #B7805D",
"g c #AE8066",
"h c #BE8663",
"j c #BF8764",
"k c #B88F78",
"l c #C08865",
"z c #C28B67",
"x c #C48C69",
"c c #C68E6B",
"v c #CC9470",
"b c #D09773",
"n c #D19A77",
"m c #D79D79",
"M c #D89F7A",
"N c #D9A07C",
"B c #DDA37F",
"V c #DBA98A",
"C c #E4AA84",
"Z c #E5AB85",
"A c #E9AF88",
"S c #EAB08A",
"D c #F0B58F",
"F c #EFBA98",
"G c #F1BA95",
"H c #F8BD96",
"J c #F1BB9A",
"K c #FBC098",
"L c #FCC199",
"P c #FDC19A",
"I c #FEC39C",
"U c #FFC49C",
"Y c #F3C4A7",
"T c #FFCCAA",
"R c #FBD0B3",
/* pixels */
"                    e222                        ",
"                272avFY2                        ",
"        225*22q;dbDPUTR22<<<<<<<<<<<<<<<        ",
"       eflseejVHUUUUPTR2cccccccccccccccfe       ",
"       eNnuZPUUUUUUUUTR*VVVVVVVVVVVVVVGNe       ",
"       eNgaUUUUUUUUUUTR2..............kNe       ",
"       eNgaUUUUUUUUUUTR2XXXXXX$$$$$$$+kNe       ",
"       eNgaUUUUUUUUUUTR2XXXXXX$$$$$$$+kNe       ",
"       eNgaUUUUUUUUUPTR2XXXXXX$$$$$$$+kNe       ",
"       eNgaUUUUUUUUUUTR2XXXXXX$$$$$$$+kNe       ",
"       eNgaUUUUUUUUUUTR*XXXXXX$$$$$$$+kNe       ",
"       eNgaUUUUUUUUUUTR2XXXXXX$$$$$$$+kNe       ",
"       eNgaUUUUUUUUUUTR2XXXXXX$$$$$$$+kNe       ",
"       eNgaUUUUUUUUUUTR2XXXXXX$$$$$$$+kNe       ",
"       eNgaUUUUUUUUUITR2XXXXXX$$$$$$$+kNe       ",
"       eNgaUUUUUUUUUITR2XXXXXX$$$$$$$+kNe       ",
"       eNgaUUUUUUUUUUTR2XXXXXX$$$$$$$+kNe       ",
"       eNgaUUUUUUUUUUTR2XXXXXX$$$$$$$+kNe       ",
"       eNgaUUUUUUUUUPTR2XXXXXX$$$$$$$+kNe       ",
"       eNgaUUUUUUUUUPTR2XXXXXX$$$$$$$+kNe       ",
"       eNgaUUUUUUUUUUTR2XXXXXX$$$$$$$+kNe       ",
"       eNgaUUUUUUUUIUTR*XXXXXX$$$$$$$+kNe       ",
"       eNgaUUUUUUUUHITR2XXXXXX$$$$$$$+kNe       ",
"       eNgaUUUUUUUUjZTR2XXXXXX$$$$$$$+kNe       ",
"       eNgaUUUUUUUUhCTR2XXXXXX$$$$$$$+kNe       ",
"       eNgaUUUUUUUUHPTR2XXXXXX$$$$$$$+kNe       ",
"       eNgaUUUUUUUUUUTR*XXXXXX$$$$$$$+kNe       ",
"       eNgaUUUUUUUUUUTR2XXXXXX$$$$$$$+kNe       ",
"       eNgaUUUUUUUUUUTR2XXXXXX$$$$$$$+kNe       ",
"       eNgaUUUUUUUUUUTR2XXXXXX$$$$$$$+kNe       ",
"       eNgaUUUUUUUUUUTR*XXXXXX$$$$$$$+kNe       ",
"       eNgaUUUUUUUUUUTR2XXXXXX$$$$$$$+kNe       ",
"       eNgaUUUUUUUUUUTR*oXXXXX$$$$$$$+kNe       ",
"       eNgaUUUUUUUUUUTR2oXXXXX$$$$$$$+kNe       ",
"       eNgaUUUUUUUUUUTR2XXXXXX$$$$$$$+kNe       ",
"       eNgaUUUUUUUUUUTR2XXXXXX$$$$$$$+kNe       ",
"       eNgaUUUUUUUUUPTR2XXXXXX$$$$$$$+kNe       ",
"       eNgaUUUUUUUUUITR2XXXXXX$$$$$$$+kNe       ",
"       eNgaUUUUUUUUUITR2XXXXXX$$$$$$$+kNe       ",
"       eNgaUUUUUUUUUUTR2XXXXXX$$$$$$$+kMe       ",
"       rNgaUUUUUUUUUUTR*XXXXXX$$$$$$$+kNe       ",
"       rNgaUUUUUUUUUUTR2XXXXXX$$$$$$$+kNe       ",
"       rNgaUUUUUUUUUUTR2XXXXXX$$$$$$$+kNe       ",
"       rNgaUUUUUUUUUUTR2XXXXXX$$$$$$$+kNe       ",
"       rd=uSKUUUUUUUUTR2OOOO+O@@@@@@@o-fe       ",
"        q&*<2pzmSPUUUTR*##############%<        ",
"              2e62axMJY2                        ",
"                   2u222                        "
};
