/* XPM */
static char *_674dceda85d47d2f0594f6c70ea7fa1VtA7WOhs1BXr50n6[] = {
/* columns rows colors chars-per-pixel */
"48 48 147 2 ",
"   c #13A837",
".  c #323538",
"X  c #323639",
"o  c #333639",
"O  c #33373A",
"+  c #34373A",
"@  c #34383B",
"#  c #35383B",
"$  c #35393C",
"%  c #36393C",
"&  c #363A3D",
"*  c #373A3D",
"=  c #373B3E",
"-  c #373C3F",
";  c #383C3F",
":  c #383D40",
">  c #393D40",
",  c #393E41",
"<  c #3A3E41",
"1  c #3A3F42",
"2  c #3B3F42",
"3  c #3B4043",
"4  c #3C4043",
"5  c #3C4144",
"6  c #3C4245",
"7  c #3D4245",
"8  c #3D4346",
"9  c #3E4346",
"0  c #3E4447",
"q  c #3F4447",
"w  c #3F4548",
"e  c #404548",
"r  c #404649",
"t  c #414649",
"y  c #41474A",
"u  c #088241",
"i  c #088242",
"p  c #098242",
"a  c #098342",
"s  c #0A8342",
"d  c #0A8442",
"f  c #0B8443",
"g  c #0C8443",
"h  c #0C8543",
"j  c #0D8543",
"k  c #0D8643",
"l  c #0E8643",
"z  c #0F8643",
"x  c #0F8743",
"c  c #0F8744",
"v  c #108744",
"b  c #118844",
"n  c #128844",
"m  c #128944",
"M  c #138944",
"N  c #128845",
"B  c #148A44",
"V  c #148A45",
"C  c #158A45",
"Z  c #158B45",
"A  c #168B45",
"S  c #178B45",
"D  c #178C45",
"F  c #188C45",
"G  c #188D45",
"H  c #198D45",
"J  c #198D46",
"K  c #1A8D46",
"L  c #1A8E46",
"P  c #1B8E46",
"I  c #1C8F46",
"U  c #1D8F46",
"Y  c #1D9046",
"T  c #1E9047",
"R  c #1F9147",
"E  c #209147",
"W  c #209247",
"Q  c #219247",
"!  c #229347",
"~  c #229348",
"^  c #239348",
"/  c #239448",
"(  c #259548",
")  c #269548",
"_  c #269648",
"`  c #289649",
"'  c #289749",
"]  c #299749",
"[  c #2A9849",
"{  c #2B9849",
"}  c #2B9949",
"|  c #2C9949",
" . c #2C994A",
".. c #2C9A4A",
"X. c #2D9A4A",
"o. c #2E9A4A",
"O. c #2E9B4A",
"+. c #2F9B4A",
"@. c #309C4A",
"#. c #319C4A",
"$. c #319C4B",
"%. c #319D4B",
"&. c #329D4B",
"*. c #339E4B",
"=. c #349E4B",
"-. c #349F4B",
";. c #359F4B",
":. c #36A04C",
">. c #37A04C",
",. c #37A14C",
"<. c #38A14C",
"1. c #39A14C",
"2. c #39A24C",
"3. c #3AA24C",
"4. c #3AA34C",
"5. c #3BA34D",
"6. c #3CA34D",
"7. c #3CA44D",
"8. c #3DA44D",
"9. c #3DA54D",
"0. c #3EA54D",
"q. c #3EA64D",
"w. c #3FA64D",
"e. c #40A64E",
"r. c #40A74E",
"t. c #41A74E",
"y. c #41A84E",
"u. c #42A84E",
"i. c #43A84E",
"p. c #43A94E",
"a. c #44A94E",
"s. c #44AA4E",
"d. c #45AA4F",
"f. c #46AA4F",
"g. c #46AB4F",
"h. c #47AB4F",
"j. c #47AC4F",
"k. c #48AC4F",
"l. c #48AD4F",
"z. c #49AD4F",
"x. c #4AAD50",
"c. c #4AAE50",
"v. c #4BAE50",
"b. c #4BAF50",
"n. c #4CAF50",
"m. c #4CAE51",
"M. c #81C77F",
/* pixels */
"                                                                                                ",
"                                                                                                ",
"                                                                                                ",
"                                                                                                ",
"                                                                                                ",
"                                                                                                ",
"              m.n.n.n.n.n.n.n.n.n.n.n.n.n.n.n.n.m.z.z.n.z.m.m.l.m.l.l.l.x.x.x.j.l.              ",
"            n.m.n.n.n.n.n.n.n.n.m.z.n.m.m.z.m.l.l.m.m.z.l.z.l.l.l.l.h.l.l.g.h.h.h.l.            ",
"            n.n.M.M.M.M.z.z.z.n.z.z.z.z.z.l.l.l.M.M.M.M.M.M.M.M.M.M.M.M.h.h.h.h.h.h.            ",
"            m.z.M.M.M.M.z.z.z.z.z.z.z.l.h.l.h.l.M.M.M.M.M.M.M.M.M.M.M.M.h.h.h.p.h.h.            ",
"            l.l.M.M.M.M.l.l.l.l.z.z.l.h.l.h.h.h.M.M.M.M.M.M.M.M.M.M.M.M.p.h.s.s.s.t.            ",
"            l.l.M.M.M.M.l.d.l.g.h.h.h.h.h.h.d.d.M.M.M.M.M.M.M.M.M.M.M.M.s.s.t.s.s.d.            ",
"            g.l.l.l.h.h.h.d.g.g.h.h.d.d.d.d.d.d.d.s.s.s.M.M.M.M.d.s.s.s.M.M.M.M.t.t.            ",
"            g.g.d.h.d.d.d.d.d.d.h.d.d.d.d.t.d.s.s.d.t.s.M.M.M.M.t.t.t.t.M.M.M.M.t.t.            ",
"            d.d.d.d.d.d.d.a.a.a.t.s.d.s.s.s.d.t.t.t.s.t.M.M.M.M.s.t.t.t.M.M.M.M.t.t.            ",
"            d.s.d.d.d.d.a.a.p.p.d.d.t.t.t.s.t.t.s.t.t.s.M.M.M.M.9.t.t.t.M.M.M.M.9.9.            ",
"            t.s.t.s.t.s.y w w q e e e q M.M.M.M.9.s.t.t.t t t w t w w w M.M.M.M.9.9.            ",
"            t.s.t.s.t.s.w q q q 7 7 q q M.M.M.M.9.9.9.t.q q q w q 7 7 q M.M.M.M.6.9.            ",
"            t.t.t.t.s.q.q 8 3 q 3 3 3 3 M.M.M.M.9.9.t.9.q 7 7 7 7 1 6 1 M.M.M.M.9.6.            ",
"            t.t.t.9.q.q.3 3 3 3 3 1 3 1 M.M.M.M.9.9.6.9.3 3 3 3 1 1 1 1 M.M.M.M.5.5.            ",
"            9.9.t.t.9.9.3 3 1 3 ; 1 = : 9.9.7.7.7.7.7.7.3 1 1 1 : 1 : : M.M.M.M.5.5.            ",
"            9.t.9.9.9.9.= = = = = * = * 7.7.7.7.5.5.7.7.= : = * * * * * M.M.M.M.5.;.            ",
"            9.6.9.6.6.9.= * * * % % % @ 5.5.1.4.1.1.1.1.= * * * * * * # M.M.M.M.;.-.            ",
"            9.9.6.5.5.5.% @ @ % % o o o 5.1.1.4.4.1.5.,.$ @ @ @ o o o o M.M.M.M.;.@.            ",
"            5.5.M.M.M.M.5.5.1.1.4.4.1.1.y y y y y w w w M.M.M.M.-.-.-.-.-.$.#.$.@.@.            ",
"            1.5.M.M.M.M.1.:.1.:.:.1.:.:.y w t q w w q q M.M.M.M.@.@.#.#.#.#.O.O.O.O.            ",
"            1.1.M.M.M.M.1.1.:.5.:.:.:.:.q q q q q q 7 q M.M.M.M.#.O.O.O.O.O.O.O.O.`             ",
"            1.:.M.M.M.M.:.@.;.@.:.@.@.@.q q 7 5 q 6 6 3 M.M.M.M.` O.{ ` ` ` ` ` } `             ",
"            :.@.M.M.M.M.@.@.@.+.3 q 5 q 5 5 5 5 3 3 3 3 6 1 1 1 ` ` ` ` M.M.M.M._ _             ",
"            -.@.M.M.M.M.@.+.+.O.3 5 3 3 3 3 3 3 3 1 1 1 1 1 1 ; ( ( _ ( M.M.M.M.~ W             ",
"            @.O.M.M.M.M.O.} } } 3 3 3 ; 1 ; 1 3 ; ; ; 1 1 = = = ( ( W W M.M.M.M.~ Y             ",
"            O.} M.M.M.M.` } ' ' ; 3 ; ; 1 = = ; ; ; = = = = = * W W W W M.M.M.M.I I             ",
"            ` ` M.M.M.M._ _ ( ( = = 1 = = = = = * * $ * % % % @ Y Y Y F Y F Y F Y F             ",
"            _ _ M.M.M.M._ ~ ( W = = * * * * % % @ * $ @ % @ @ @ F Y I F F D F D D D             ",
"            ~ ~ M.M.M.M.W ~ E I % % @ % @ @ @ @ o @ @ @ @ o o o D D F D D D C C C b             ",
"            W ~ M.M.M.M.E I I I @ @ o % @ o o o o o . . . . . . C C C b B b b b b b             ",
"            Y Y I Y I I M.M.M.M.o o o o D D D D B b C b o o . . b b x x c b x z z z             ",
"            I F I F F F M.M.M.M.. . . . b C b b D b b b . . . . x v z z f z f f f c             ",
"            F D F C C C M.M.M.M.. . . . b b z c c c z x . . . . z f f f f f i f i i             ",
"            C C C C M M M.M.M.M.. . . . v x z z z f f f . . . . i f i i i i i i i i             ",
"            b b v v c c c z z z z f z f f f f f p f p p i i i p i i i i i i i i i i             ",
"              z z z z z f f f f f f p f f i i p i i i p i i i p i i i p i i i p i               ",
"                                                                                                ",
"                                                                                                ",
"                                                                                                ",
"                                                                                                ",
"                                                                                                ",
"                                                                                                "
};
