/* XPM */
static char *_91bece7fc824887bd8ff538f6ae9a63OGW2nvhtsp8EDVyn[] = {
/* columns rows colors chars-per-pixel */
"48 48 143 2 ",
"   c #13A837",
".  c #1F212B",
"X  c #25222C",
"o  c #2A242E",
"O  c #2E2530",
"+  c #322631",
"@  c #362832",
"#  c #3C2934",
"$  c #422A36",
"%  c #4A2D37",
"&  c #4C2D39",
"*  c #522F3B",
"=  c #57313D",
"-  c #5D323E",
";  c #60333E",
":  c #653441",
">  c #6C3643",
",  c #713744",
"<  c #753945",
"1  c #793A47",
"2  c #7E3B49",
"3  c #6B4C47",
"4  c #734E49",
"5  c #6B5448",
"6  c #7C554D",
"7  c #7F5D4F",
"8  c #7A745C",
"9  c #7F7A60",
"0  c #863D4B",
"q  c #8B3E4C",
"w  c #8D404D",
"e  c #92404E",
"r  c #825A4F",
"t  c #964250",
"y  c #9B4351",
"u  c #855F51",
"i  c #8C5B52",
"p  c #955A54",
"a  c #9B5C56",
"s  c #A24554",
"d  c #A94756",
"f  c #AA4856",
"g  c #AE4858",
"h  c #B44A5A",
"j  c #BC4D5B",
"k  c #A35C58",
"l  c #AC5C5A",
"z  c #B45E5D",
"x  c #BD5E5E",
"c  c #856151",
"v  c #8B6453",
"b  c #8E6A55",
"n  c #9E6057",
"m  c #916D57",
"M  c #84795E",
"N  c #947158",
"B  c #99745A",
"V  c #AA755E",
"C  c #A27A5D",
"Z  c #A97E5F",
"A  c #857C60",
"S  c #8D7F61",
"D  c #AF7660",
"F  c #AB7D60",
"G  c #C44F5F",
"H  c #C8505F",
"J  c #C05E5F",
"K  c #CC5161",
"L  c #C25E60",
"P  c #CC5F64",
"I  c #D45363",
"U  c #DD5666",
"Y  c #D05E65",
"T  c #DA5E66",
"R  c #DD5D68",
"E  c #E15767",
"W  c #E35768",
"Q  c #E55A69",
"!  c #EC5B6B",
"~  c #F05B6C",
"^  c #C36D64",
"/  c #D16265",
"(  c #D76D68",
")  c #EE7B71",
"_  c #F37471",
"`  c #8F8A69",
"'  c #928364",
"]  c #9C8665",
"[  c #9D8867",
"{  c #918E6C",
"}  c #9C9973",
"|  c #AD8362",
" . c #A28A68",
".. c #AC8D6A",
"X. c #B28663",
"o. c #B98165",
"O. c #B68964",
"+. c #B98C67",
"@. c #A49E76",
"#. c #AD9A72",
"$. c #BD9970",
"%. c #B7A479",
"&. c #C48D69",
"*. c #D4806B",
"=. c #C9976C",
"-. c #CF9B6F",
";. c #D09B6E",
":. c #C29D72",
">. c #DE9170",
",. c #D09873",
"<. c #E39873",
"1. c #D4A273",
"2. c #DDA474",
"3. c #DBAB79",
"4. c #E1A775",
"5. c #E1A775",
"6. c #E2A976",
"7. c #E6AB77",
"8. c #E3A877",
"9. c #F8A57A",
"0. c #EFB17A",
"q. c #EFB47D",
"w. c #F2B37D",
"e. c #F6B67E",
"r. c #F2B67E",
"t. c #F7B87E",
"y. c #FAB87E",
"u. c #FBB97F",
"i. c #F9B87E",
"p. c #FBB97F",
"a. c #BDB984",
"s. c #CAB484",
"d. c #FBBB81",
"f. c #C7C18B",
"g. c #CBC68D",
"h. c #CFCA90",
"j. c #D6D194",
"k. c #F7D995",
"l. c #EAE39F",
"z. c #E9E29E",
"x. c #FCE19E",
"c. c #F5EDA5",
"v. c #FEF6AA",
/* pixels */
"                                                                                                ",
"                                                                                                ",
"                                                                                                ",
"                                                                                                ",
"                                            .                                                   ",
"                                            X                                                   ",
"                                            . o                                                 ",
"                                            * o                                                 ",
"                                          X q #                                                 ",
"                                          o g 0 X                                               ",
"                                          O K H o                                               ",
"                                          X ! ~ +                                               ",
"                                          + ~ ~ <                                               ",
"          X                               * ~ ~ h +                                       o     ",
"          o o o                           2 ~ ~ ! o                                   o o X     ",
"          o 0 < o                       o y ~ ~ ~ -                                 o 0 1 o     ",
"            $ ! h + X                   + j ~ ~ ~ d o                           o : E E o       ",
"            o U ~ U - o                 o U ~ ~ ~ Q o                       o & K ~ ~ 1 o       ",
"            o t ~ ~ ~ s o               X ~ ~ ~ ~ ~ &                   + @ d ~ ~ ~ U X         ",
"              % ~ ~ ~ ~ I % o           $ ~ ~ ~ ~ ~ t o             o O 0 ! ~ ~ ~ ~ < o         ",
"              o U ~ ~ ~ ~ ! q X         : ~ ~ ~ ~ ~ U o           o > E ~ ~ ~ ~ ~ U o           ",
"              o s ~ ~ ~ ~ ~ ~ K @ o   X w ~ ~ ~ ~ ~ ! #       o * K ~ ~ ~ ~ ~ ~ ~ > o           ",
"                = ~ ~ ~ ~ ~ ~ ~ ! , o o g ~ ~ ~ ~ ~ ~ 0 X o # j ~ ~ ~ ~ ~ ~ ~ ~ I o             ",
"                X W ~ ~ ~ ~ ~ ~ ~ ~ h @ I ~ ~ P ! ~ ! K @ y ! ! ~ ~ ~ ~ ~ ~ ~ ! :               ",
"                o d ! ~ ~ ~ ~ ~ ~ ~ ~ ~ ~ ~ ~ 4 L ~ ~ ~ ~ ~ ~ ~ ! ! l ~ ~ ~ ~ I o               ",
"                  = ~ ~ ~ x T ~ ~ ~ ~ ~ ~ ~ ~ v i ~ ~ ~ ~ ~ ~ ~ L r 3 ~ ~ ~ ! :                 ",
"                  o Q ~ ~ z 5 k ~ ~ ~ ~ ~ ~ ! N v ~ ~ ~ ~ ~ R r O.O.L ~ ~ ~ K o                 ",
"                  o g ~ ~ ! m -.r T ~ ~ ~ ~ P O.X.P ~ ~ ! p B w.d.>.~ ~ ~ ~ ;                   ",
"                    - ~ ~ ~ i y.e.C k ! ~ ~ k 8.0.p ~ z c 4.u.u.w._ ~ ~ ! K o                   ",
"                    X ~ ~ ! z -.u.u.;.r T ~ i d.u.7 r =.u.u.u.u.D ~ ~ ~ ! -                     ",
"            X o + , j ~ ~ ~ ! m p.p.d.e.N k v u.u.7.y.u.u.u.u.;.( ~ ~ ~ G o                     ",
"      O o $ q K ~ ~ ~ ~ ~ ~ ~ i p.p.p.p.y.-.| u.u.u.u.u.u.u.u.o.~ ~ ~ ~ *                       ",
"  X & s U ~ ~ ~ ~ ~ ~ ~ ~ ~ ! p ;.u.u.u.u.u.u.u.u.u.d.#.u.u.7.) ~ ~ ~ ~ > O o o                 ",
"  o o h ~ ~ ~ ~ ~ ~ ~ Q l *.&.+.e.u.u.u.u.u.u.u.u.d.#.' u.u.v ! ~ ~ ~ ~ ~ ~ U d < $ X + o       ",
"      o ; U ~ ~ ~ ^ V 4.2.u.d.u.u.u.u.u.:.' u.d.d.k.l.' p.8.4 / ~ ! ~ ~ ~ ~ ~ ~ ~ ~ ! j q $ X   ",
"          o y ~ ~ P u 6.u.u.u.u.u.u.u.u.1.{ M e.[ j.v.' p.p.2.C b i k / ~ ~ ~ ~ ~ ~ ! ! e o X   ",
"            o % I ~ ! a Z p.u.u.u.u.u.u.q.} l.8 a.v.c.[ u.u.d.u.u.u.7.| b 6 Y ~ ~ ~ G @ o       ",
"                X q ~ ~ P u 4.u.u.u.u.e.$.{ v.v.v.v.c.` ' :.t.p.u.u.u.u.Z a ! ~ E > o           ",
"                  o # H ~ ! a Z u.u.] 8 g.v.v.v.v.v.v.v.v.f.8 ..u.u.2.r Y ~ ! s o o             ",
"                      o 2 ! ~ P c 6.r.] @.v.v.v.v.v.v.v.v.h.M r.u.| p ! ~ H $ o                 ",
"                        o @ G ~ ! n Z u.3.A g.v.v.v.v.v.@. .u.2.r Y ~ Q , o                     ",
"                            - ~ ~ ~ J D 9.9...s.x.x.x.%.,.9.<.p ! ~ ~ d o                       ",
"                                                                                                ",
"                                                                                                ",
"                                                                                                ",
"                                                                                                ",
"                                                                                                ",
"                                                                                                "
};
