/* XPM */
static char *_4a3756b8d044b45fb6e1ae16c065660e4jrGpbL5cCUXzTh[] = {
/* columns rows colors chars-per-pixel */
"48 48 7 1 ",
"  c #13A837",
". c #5D4037",
"X c #795548",
"o c #F57C00",
"O c #1565C0",
"+ c #FFCC80",
"@ c white",
/* pixels */
"                                                ",
"                                                ",
"                                                ",
"                                                ",
"                                                ",
"                                                ",
"      ....................................      ",
"      ....................................      ",
"      ....................................      ",
"      ....................................      ",
"      ....................................      ",
"      ....................................      ",
"      ....................................      ",
"      .....++++++++++++++++++++++++++.....      ",
"      .....++++++++++++++++++++++++++.....      ",
"      .....++++++++++++++++++++++++++.....      ",
"      .....++++++++++++++++++++++++++.....      ",
"      .....++++++++++++++++++++++++++.....      ",
"      ++++++++++++++++++++++++++++++++++++      ",
"      ++++++++++++++++++++++++++++++++++++      ",
"      ++++++++++++++++++++++++++++++++++++      ",
"      ++++++++++++++++++++++++++++++++++++      ",
"      ++++++@@@@OOOO++++++++OOOO@@@@++++++      ",
"      ++++++@@@@OOOO++++++++OOOO@@@@++++++      ",
"      ++++++@@@@OOOO++++++++OOOO@@@@++++++      ",
"      ++++++@@@@OOOO++++++++OOOO@@@@++++++      ",
"      ++++++++++++++oooooooo++++++++++++++      ",
"      ++++++++++++++oooooooo++++++++++++++      ",
"      ++++++++++++++oooooooo++++++++++++++      ",
"      ++++++++++++++oooooooo++++++++++++++      ",
"      ++++++++XXXX++++++++++++XXXX++++++++      ",
"      ++++++++XXXX++++++++++++XXXX++++++++      ",
"      ++++++++XXXX++++++++++++XXXX++++++++      ",
"      ++++++++XXXX++++++++++++XXXX++++++++      ",
"      ++++++++XXXXXXXXXXXXXXXXXXXX++++++++      ",
"      ++++++++XXXXXXXXXXXXXXXXXXXX++++++++      ",
"      ++++++++XXXXXXXXXXXXXXXXXXXX++++++++      ",
"      ++++++++XXXXXXXXXXXXXXXXXXXX++++++++      ",
"      ++++++++++++++++++++++++++++++++++++      ",
"      ++++++++++++++++++++++++++++++++++++      ",
"      ++++++++++++++++++++++++++++++++++++      ",
"      ++++++++++++++++++++++++++++++++++++      ",
"                                                ",
"                                                ",
"                                                ",
"                                                ",
"                                                ",
"                                                "
};
