/* XPM */
static char *_a7d76d7f0884888b14a206aa0a521b5YoH44aWkmAJquqsm[] = {
/* columns rows colors chars-per-pixel */
"48 48 45 1 ",
"  c #13A837",
". c #768A9B",
"X c #778A9C",
"o c #778B9C",
"O c #788A9B",
"+ c #788B9B",
"@ c #788B9C",
"# c #798C9D",
"$ c #798D9D",
"% c #7A8D9D",
"& c #7A8E9D",
"* c #798D9E",
"= c #7A8D9E",
"- c #7A8E9E",
"; c #7B8E9F",
": c #7B8F9F",
"> c #7C8F9F",
", c #7B8FA0",
"< c #7C8FA0",
"1 c #7D91A1",
"2 c #8193A5",
"3 c #8094A4",
"4 c #8194A5",
"5 c #8295A6",
"6 c #8396A7",
"7 c #8497A8",
"8 c #8598A9",
"9 c #8699A9",
"0 c #8598AA",
"q c #899CAC",
"w c #8A9CAD",
"e c #8C9FAF",
"r c #8C9FB0",
"t c #8EA0B1",
"y c #8EA0B2",
"u c #93A5B7",
"i c #93A6B6",
"p c #97A9BA",
"a c #97AABA",
"s c #99ABBD",
"d c #9AACBD",
"f c #9CAEC0",
"g c #A4B4C7",
"h c #A5B6C9",
"j c #B0C1D4",
/* pixels */
"                                                ",
"                                                ",
"   oooooooOO+++++++++++++++##+O+++++++++++++@.  ",
"  o2yyyyyyw@yyyyyyyyyyyyyyy0#yyyyyyyyyyyyyyy3+  ",
"  oyjjjjjjh@jjjjjjjjjjjjjjjs1jjjjjjjjjjjjjjjy+  ",
"  oyjjjjjjh@jjjjjjjjjjjjjjjs#jjjjjjjjjjjjjjjy+  ",
"  oyjjjjjjh#jjjjjjjjjjjjjjjs1jjjjjjjjjjjjjjjy+  ",
"  oyjjjjjjh#jjjjjjjjjjjjjjjs1jjjjjjjjjjjjjjjy+  ",
"  oyjjjjjjh#jjjjjjjjjjjjjjjs>jjjjjjjjjjjjjjjy@  ",
"  oyjjjjjjh.jjjjjjjjjjjjjjjs:jjjjjjjjjjjjjjjy@  ",
"  Owhhhhhhf#dfffdfdssffffffy#fffsffffghhhhhhwO  ",
"  O@O#.##.#O#.#O####+#+##+o##o+##O#.###.#O#.#+  ",
"  +yjjjjjjjjjjjjjjj1djjjjjjjjjjjjjjj.hjjjjjjyo  ",
"  +yjjjjjjjjjjjjjjj:sjjjjjjjjjjjjjjj#hjjjjjjyo  ",
"  +yjjjjjjjjjjjjjjj1sjjjjjjjjjjjjjjjOhjjjjjjyo  ",
"  +yjjjjjjjjjjjjjjj#sjjjjjjjjjjjjjjj#hjjjjjjyo  ",
"  +yjjjjjjjjjjjjjjj1sjjjjjjjjjjjjjjj@hjjjjjjy@  ",
"  +yjjjjjjjjjjjjjjj1sjjjjjjjjjjjjjjj@hjjjjjjy@  ",
"  Oyjjjjjjjjjjjjjjj,sjjjjjjjjjjjjjjj@hjjjjjjr@  ",
"  O16739773#,,>1,,1o::111:1:##1:<<<<#37777731@  ",
"  #0ssddssu#sdddsssssssdsssy1sssddddddddsssd0+  ",
"  .yjjjjjjh+jjjjjjjjjjjjjjjs,jjjjjjjjjjjjjjju+  ",
"  +yjjjjjjh#jjjjjjjjjjjjjjjs1jjjjjjjjjjjjjjjeO  ",
"  oyjjjjjjh+jjjjjjjjjjjjjjjs:jjjjjjjjjjjjjjjrO  ",
"  +yjjjjjjh+jjjjjjjjjjjjjjjs>jjjjjjjjjjjjjjjy+  ",
"  .yjjjjjjh#jjjjjjjjjjjjjjjs>jjjjjjjjjjjjjjjyO  ",
"  oyjjjjjjh+jjjjjjjjjjjjjjjs:jjjjjjjjjjjjjjjy+  ",
"  #0ssssdsuOeeeeeee0qeeyeee9:eeeerrreadddsss0+  ",
"  +>930666622633336#>333333316633333+36693061o  ",
"  +yjjjjjjjjjjjjjjj3ejjjjjjjjjjjjjjj#hjjjjjjyo  ",
"  +yjjjjjjjjjjjjjjj3ejjjjjjjjjjjjjjjOhjjjjjjy.  ",
"  +yjjjjjjjjjjjjjjj6yjjjjjjjjjjjjjjj#hjjjjjjy#  ",
"  +yjjjjjjjjjjjjjjj3rjjjjjjjjjjjjjjj@hjjjjjjyo  ",
"  +yjjjjjjjjjjjjjjj3rjjjjjjjjjjjjjjj@hjjjjjjy@  ",
"  +yjjjjjjjjjjjjjjj3rjjjjjjjjjjjjjjj@hjjjjjjyo  ",
"  +yjjjjjjjjjjjjjjj3ejjjjjjjjjjjjjjj@hjjjjjjyo  ",
"  +#.#O#O#.#.#O#o#.#+#+#@@@@#@@@@@@@@@@@O#.#@+  ",
"  .whhhhhhfOhhhhhhhhhhhhhhhu>hhhhhhhhhhhhhhhwO  ",
"  #yjjjjjjh#jjjjjjjjjjjjjjjd<jjjjjjjjjjjjjjjy+  ",
"  +yjjjjjjh.jjjjjjjjjjjjjjjd<jjjjjjjjjjjjjjjy+  ",
"  oyjjjjjjhOjjjjjjjjjjjjjjjs:jjjjjjjjjjjjjjjy+  ",
"  oyjjjjjjh#jjjjjjjjjjjjjjjs1jjjjjjjjjjjjjjjy+  ",
"  oyjjjjjjh.jjjjjjjjjjjjjjjs#jjjjjjjjjjjjjjjy+  ",
"  oyjjjjjjh#jjjjjjjjjjjjjjjs1jjjjjjjjjjjjjjjy+  ",
"  o3yyyyyyw#yyyyyyyyyyyyyyy0#yyyyyyyyyyyyyyy3O  ",
"   @oooooO.+++++++++++++#+++@@#+++++++++++++@.  ",
"                                                ",
"                                                "
};
